<svg class="animated" id="freepik_stories-cardiologist" xmlns="http://www.w3.org/2000/svg" viewBox="0 0 500 500" version="1.1" xmlns:xlink="http://www.w3.org/1999/xlink" xmlns:svgjs="http://svgjs.com/svgjs"><style>svg#freepik_stories-cardiologist:not(.animated) .animable {opacity: 0;}svg#freepik_stories-cardiologist.animated #freepik--background-complete--inject-144 {animation: 1s 1 forwards cubic-bezier(.36,-0.01,.5,1.38) zoomIn;animation-delay: 0s;}svg#freepik_stories-cardiologist.animated #freepik--Shadow--inject-144 {animation: 1s 1 forwards cubic-bezier(.36,-0.01,.5,1.38) zoomOut;animation-delay: 0s;}svg#freepik_stories-cardiologist.animated #freepik--Plant--inject-144 {animation: 1s 1 forwards cubic-bezier(.36,-0.01,.5,1.38) zoomIn;animation-delay: 0s;}svg#freepik_stories-cardiologist.animated #freepik--Heart--inject-144 {animation: 1s 1 forwards cubic-bezier(.36,-0.01,.5,1.38) lightSpeedLeft;animation-delay: 0s;}svg#freepik_stories-cardiologist.animated #freepik--speech-bubble--inject-144 {animation: 1s 1 forwards cubic-bezier(.36,-0.01,.5,1.38) lightSpeedRight;animation-delay: 0s;}svg#freepik_stories-cardiologist.animated #freepik--Character--inject-144 {animation: 1s 1 forwards cubic-bezier(.36,-0.01,.5,1.38) slideDown;animation-delay: 0s;}            @keyframes zoomIn {                0% {                    opacity: 0;                    transform: scale(0.5);                }                100% {                    opacity: 1;                    transform: scale(1);                }            }                    @keyframes zoomOut {                0% {                    opacity: 0;                    transform: scale(1.5);                }                100% {                    opacity: 1;                    transform: scale(1);                }            }                    @keyframes lightSpeedLeft {              from {                transform: translate3d(-50%, 0, 0) skewX(20deg);                opacity: 0;              }              60% {                transform: skewX(-10deg);                opacity: 1;              }              80% {                transform: skewX(2deg);              }              to {                opacity: 1;                transform: translate3d(0, 0, 0);              }            }                    @keyframes lightSpeedRight {              from {                transform: translate3d(50%, 0, 0) skewX(-20deg);                opacity: 0;              }              60% {                transform: skewX(10deg);                opacity: 1;              }              80% {                transform: skewX(-2deg);              }              to {                opacity: 1;                transform: translate3d(0, 0, 0);              }            }                    @keyframes slideDown {                0% {                    opacity: 0;                    transform: translateY(-30px);                }                100% {                    opacity: 1;                    transform: translateY(0);                }            }        </style><g id="freepik--background-complete--inject-144" class="animable" style="transform-origin: 250px 228.23px;"><rect y="382.4" width="500" height="0.25" style="fill: rgb(235, 235, 235); transform-origin: 250px 382.525px;" id="eligqgm2txspk" class="animable"></rect><rect x="416.78" y="398.49" width="33.12" height="0.25" style="fill: rgb(235, 235, 235); transform-origin: 433.34px 398.615px;" id="elxdida8qzq4" class="animable"></rect><rect x="322.53" y="401.21" width="8.69" height="0.25" style="fill: rgb(235, 235, 235); transform-origin: 326.875px 401.335px;" id="elc6iznhc7fsm" class="animable"></rect><rect x="396.59" y="389.21" width="19.19" height="0.25" style="fill: rgb(235, 235, 235); transform-origin: 406.185px 389.335px;" id="el32c07ordrxb" class="animable"></rect><rect x="52.46" y="390.89" width="43.19" height="0.25" style="fill: rgb(235, 235, 235); transform-origin: 74.055px 391.015px;" id="elsxg8eysp5v" class="animable"></rect><rect x="104.56" y="390.89" width="6.33" height="0.25" style="fill: rgb(235, 235, 235); transform-origin: 107.725px 391.015px;" id="el4tqz60kjhx7" class="animable"></rect><rect x="131.47" y="395.11" width="93.68" height="0.25" style="fill: rgb(235, 235, 235); transform-origin: 178.31px 395.235px;" id="elfx8d8fkso5a" class="animable"></rect><path d="M237,337.8H43.91a5.71,5.71,0,0,1-5.7-5.71V60.66A5.71,5.71,0,0,1,43.91,55H237a5.71,5.71,0,0,1,5.71,5.71V332.09A5.71,5.71,0,0,1,237,337.8ZM43.91,55.2a5.46,5.46,0,0,0-5.45,5.46V332.09a5.46,5.46,0,0,0,5.45,5.46H237a5.47,5.47,0,0,0,5.46-5.46V60.66A5.47,5.47,0,0,0,237,55.2Z" style="fill: rgb(235, 235, 235); transform-origin: 140.46px 196.4px;" id="elmwiyf7usyxa" class="animable"></path><path d="M453.31,337.8H260.21a5.72,5.72,0,0,1-5.71-5.71V60.66A5.72,5.72,0,0,1,260.21,55h193.1A5.71,5.71,0,0,1,459,60.66V332.09A5.71,5.71,0,0,1,453.31,337.8ZM260.21,55.2a5.47,5.47,0,0,0-5.46,5.46V332.09a5.47,5.47,0,0,0,5.46,5.46h193.1a5.47,5.47,0,0,0,5.46-5.46V60.66a5.47,5.47,0,0,0-5.46-5.46Z" style="fill: rgb(235, 235, 235); transform-origin: 356.75px 196.4px;" id="elcpuwklkwm2h" class="animable"></path><g id="elsy7n9u2xsq"><rect x="73.48" y="127.87" width="89.31" height="70.29" style="fill: rgb(230, 230, 230); transform-origin: 118.135px 163.015px; transform: rotate(90deg);" class="animable"></rect></g><rect x="84.59" y="119.96" width="67.09" height="86.1" style="fill: rgb(240, 240, 240); transform-origin: 118.135px 163.01px;" id="elvtnsxr66xo" class="animable"></rect><path d="M134.39,160.33c-2.6,2.87-3.25-2.84-3.25-2.84l-7.43-12.63-1.62,13L127.68,198s5.12,1.52,5.45,2.39-8.77,1.09-9.75,0,1-2.39,1-2.39l-7-33.22-.11.53L110.28,198s2,1.3,1,2.39-10.07.85-9.74,0S107,198,107,198l5.59-40.18-1.61-13-7.43,12.63s-.65,5.71-3.25,2.84,2-5.47,2-5.47l8.08-14,4.46-1.55,1-1.24s-5.73-10.27,1.48-10.47h.21c7.21.2,1.49,10.47,1.49,10.47l1,1.24,4.46,1.55,8.08,14S137,157.46,134.39,160.33Z" style="fill: rgb(250, 250, 250); transform-origin: 117.358px 164.344px;" id="el58t3lf2vv98" class="animable"></path><path d="M117.21,127.58v37.74L110.28,198s2,1.3,1,2.39-10.07.85-9.74,0S107,198,107,198l5.59-40.18-1.61-13-7.43,12.63s-.65,5.71-3.25,2.84,2-5.47,2-5.47l8.08-14,4.46-1.55,1-1.24S110,127.78,117.21,127.58Z" style="fill: rgb(230, 230, 230); transform-origin: 108.357px 164.35px;" id="el7tngopjy7li" class="animable"></path><rect x="132.04" y="129.99" width="9.29" height="3.62" style="fill: rgb(230, 230, 230); transform-origin: 136.685px 131.8px;" id="eliar5u03q75k" class="animable"></rect><rect x="135.19" y="146.26" width="9.29" height="3.62" style="fill: rgb(230, 230, 230); transform-origin: 139.835px 148.07px;" id="elot8pvr2x51" class="animable"></rect><rect x="91.09" y="163.35" width="9.29" height="3.62" style="fill: rgb(230, 230, 230); transform-origin: 95.735px 165.16px;" id="elvnz93s6j0yq" class="animable"></rect><rect x="94.8" y="129.85" width="9.29" height="3.62" style="fill: rgb(230, 230, 230); transform-origin: 99.445px 131.66px;" id="elzhl1m7eochh" class="animable"></rect><rect x="132.04" y="169.35" width="9.29" height="3.62" style="fill: rgb(230, 230, 230); transform-origin: 136.685px 171.16px;" id="eltz2t9x9qeaa" class="animable"></rect><rect x="93.64" y="183.2" width="9.29" height="3.62" style="fill: rgb(230, 230, 230); transform-origin: 98.285px 185.01px;" id="elxlbwvalaxzi" class="animable"></rect><rect x="136.69" y="186.82" width="9.29" height="3.62" style="fill: rgb(230, 230, 230); transform-origin: 141.335px 188.63px;" id="el15th61pcfdp" class="animable"></rect><g id="elyrkqoev1iq"><rect x="163.15" y="129.07" width="90.15" height="67.89" style="fill: rgb(230, 230, 230); transform-origin: 208.225px 163.015px; transform: rotate(-90deg);" class="animable"></rect></g><rect x="175.88" y="119.54" width="64.68" height="86.95" style="fill: rgb(245, 245, 245); transform-origin: 208.22px 163.015px;" id="ela8eb1ghmeco" class="animable"></rect><rect x="175.88" y="119.54" width="64.68" height="21.61" style="fill: rgb(250, 250, 250); transform-origin: 208.22px 130.345px;" id="elmsxezwno2n" class="animable"></rect><rect x="175.88" y="161.14" width="64.68" height="23.76" style="fill: rgb(250, 250, 250); transform-origin: 208.22px 173.02px;" id="el927nd7y9how" class="animable"></rect><path d="M182,129.38a6.55,6.55,0,1,0,6.55-6.54A6.55,6.55,0,0,0,182,129.38Z" style="fill: rgb(245, 245, 245); transform-origin: 188.55px 129.39px;" id="elm5nr281t9l" class="animable"></path><circle cx="230.6" cy="151" r="6.55" style="fill: rgb(250, 250, 250); transform-origin: 230.6px 151px;" id="eljoffeaz6xai" class="animable"></circle><circle cx="187.72" cy="174.09" r="6.55" style="fill: rgb(245, 245, 245); transform-origin: 187.72px 174.09px;" id="elt8u6xmpq6w" class="animable"></circle><circle cx="229.82" cy="195.71" r="6.55" style="fill: rgb(250, 250, 250); transform-origin: 229.82px 195.71px;" id="el502gahw2xgm" class="animable"></circle><rect x="313.85" y="118.13" width="94.67" height="213.27" style="fill: rgb(245, 245, 245); transform-origin: 361.185px 224.765px;" id="ell3yqraom4k8" class="animable"></rect><g id="ell6j41gfyzfh"><rect x="258.54" y="181.01" width="205.27" height="87.53" style="fill: rgb(250, 250, 250); transform-origin: 361.175px 224.775px; transform: rotate(90deg);" class="animable"></rect></g><rect x="360.18" y="121.11" width="2.01" height="208.3" style="fill: rgb(245, 245, 245); transform-origin: 361.185px 225.26px;" id="elbrclhjtw839" class="animable"></rect><rect x="311.66" y="115.36" width="99.04" height="10.04" style="fill: rgb(245, 245, 245); transform-origin: 361.18px 120.38px;" id="elqit9rt1ynm" class="animable"></rect><rect x="311.66" y="126.51" width="99.04" height="1.19" style="fill: rgb(245, 245, 245); transform-origin: 361.18px 127.105px;" id="el7hdwjfs4408" class="animable"></rect><rect x="311.66" y="129.21" width="99.04" height="1.19" style="fill: rgb(245, 245, 245); transform-origin: 361.18px 129.805px;" id="el2uhvy1md16j" class="animable"></rect><rect x="311.66" y="131.91" width="99.04" height="1.19" style="fill: rgb(245, 245, 245); transform-origin: 361.18px 132.505px;" id="eld1gebbqw3rb" class="animable"></rect><rect x="311.66" y="134.61" width="99.04" height="1.19" style="fill: rgb(245, 245, 245); transform-origin: 361.18px 135.205px;" id="el1xq96giqkf7" class="animable"></rect><rect x="311.66" y="137.31" width="99.04" height="1.19" style="fill: rgb(245, 245, 245); transform-origin: 361.18px 137.905px;" id="elav9y5tpcqzg" class="animable"></rect><rect x="311.66" y="140.01" width="99.04" height="1.19" style="fill: rgb(245, 245, 245); transform-origin: 361.18px 140.605px;" id="elbg6zbv3sv9q" class="animable"></rect><rect x="311.66" y="142.71" width="99.04" height="1.19" style="fill: rgb(245, 245, 245); transform-origin: 361.18px 143.305px;" id="elf1jhvnw40a9" class="animable"></rect><rect x="311.66" y="145.41" width="99.04" height="1.19" style="fill: rgb(245, 245, 245); transform-origin: 361.18px 146.005px;" id="elx83xyeubzs" class="animable"></rect><rect x="311.66" y="148.11" width="99.04" height="1.19" style="fill: rgb(245, 245, 245); transform-origin: 361.18px 148.705px;" id="elnnv6mtci1dj" class="animable"></rect><rect x="311.66" y="150.81" width="99.04" height="1.19" style="fill: rgb(245, 245, 245); transform-origin: 361.18px 151.405px;" id="elpywjdf9k4n" class="animable"></rect><rect x="311.66" y="153.51" width="99.04" height="1.19" style="fill: rgb(245, 245, 245); transform-origin: 361.18px 154.105px;" id="elzodh6wqzgqg" class="animable"></rect><rect x="311.66" y="156.21" width="99.04" height="1.19" style="fill: rgb(245, 245, 245); transform-origin: 361.18px 156.805px;" id="elr8x454azawo" class="animable"></rect><rect x="311.66" y="158.91" width="99.04" height="1.19" style="fill: rgb(245, 245, 245); transform-origin: 361.18px 159.505px;" id="eldn32pfnht0j" class="animable"></rect><rect x="311.66" y="161.61" width="99.04" height="1.19" style="fill: rgb(245, 245, 245); transform-origin: 361.18px 162.205px;" id="elgunibvon3n" class="animable"></rect><rect x="311.66" y="164.31" width="99.04" height="1.19" style="fill: rgb(245, 245, 245); transform-origin: 361.18px 164.905px;" id="elyznw9svv96" class="animable"></rect><rect x="311.66" y="167.01" width="99.04" height="1.19" style="fill: rgb(245, 245, 245); transform-origin: 361.18px 167.605px;" id="eln3vzffr11hp" class="animable"></rect><rect x="311.66" y="169.71" width="99.04" height="1.19" style="fill: rgb(245, 245, 245); transform-origin: 361.18px 170.305px;" id="elf1fya9s60sc" class="animable"></rect><rect x="311.66" y="172.41" width="99.04" height="1.19" style="fill: rgb(245, 245, 245); transform-origin: 361.18px 173.005px;" id="el7g0a5eon0md" class="animable"></rect><polygon points="83.97 260.77 83.97 383.2 89.85 383.2 89.85 377.08 244.6 377.08 244.6 383.2 250.49 383.2 250.49 260.77 83.97 260.77" style="fill: rgb(240, 240, 240); transform-origin: 167.23px 321.985px;" id="elfryi8je3k09" class="animable"></polygon><g id="ellge77b470db"><rect x="89.85" y="266.96" width="154.75" height="45.09" style="fill: rgb(224, 224, 224); transform-origin: 167.225px 289.505px; transform: rotate(180deg);" class="animable"></rect></g><g id="eltgcuzzc8e3p"><rect x="235.81" y="274.26" width="8.79" height="37.79" style="fill: rgb(235, 235, 235); transform-origin: 240.205px 293.155px; transform: rotate(180deg);" class="animable"></rect></g><g id="el4znq3ge4ray"><rect x="193.31" y="274.26" width="8.79" height="37.79" style="fill: rgb(235, 235, 235); transform-origin: 197.705px 293.155px; transform: rotate(180deg);" class="animable"></rect></g><g id="elu672r3rd5dm"><rect x="141.78" y="273.79" width="8.79" height="37.79" style="fill: rgb(235, 235, 235); transform-origin: 146.175px 292.685px; transform: rotate(-170.22deg);" class="animable"></rect></g><g id="el7jvxkpg3nbj"><rect x="224.92" y="279.24" width="8.79" height="32.81" style="fill: rgb(235, 235, 235); transform-origin: 229.315px 295.645px; transform: rotate(180deg);" class="animable"></rect></g><g id="ely26nk91run"><rect x="204.71" y="279.24" width="8.79" height="32.81" style="fill: rgb(235, 235, 235); transform-origin: 209.105px 295.645px; transform: rotate(180deg);" class="animable"></rect></g><g id="elfngd5dotj38"><rect x="153.71" y="279.24" width="8.79" height="32.81" style="fill: rgb(235, 235, 235); transform-origin: 158.105px 295.645px; transform: rotate(180deg);" class="animable"></rect></g><g id="el55bq8om11da"><rect x="178.1" y="278.68" width="8.79" height="32.81" style="fill: rgb(235, 235, 235); transform-origin: 182.495px 295.085px; transform: rotate(-167.47deg);" class="animable"></rect></g><g id="elymfl3etqkxt"><rect x="217.32" y="272.39" width="4.4" height="39.67" style="fill: rgb(235, 235, 235); transform-origin: 219.52px 292.225px; transform: rotate(180deg);" class="animable"></rect></g><g id="elra7mjfs1p7s"><rect x="165.03" y="272.39" width="4.4" height="39.67" style="fill: rgb(235, 235, 235); transform-origin: 167.23px 292.225px; transform: rotate(180deg);" class="animable"></rect></g><rect x="89.85" y="274.26" width="8.79" height="37.79" style="fill: rgb(235, 235, 235); transform-origin: 94.245px 293.155px;" id="eldnxsjp8n5v" class="animable"></rect><rect x="100.75" y="279.24" width="8.79" height="32.81" style="fill: rgb(235, 235, 235); transform-origin: 105.145px 295.645px;" id="ele5j75l4rcs" class="animable"></rect><rect x="120.95" y="279.24" width="8.79" height="32.81" style="fill: rgb(235, 235, 235); transform-origin: 125.345px 295.645px;" id="el1tp68pfnx86" class="animable"></rect><rect x="112.74" y="272.39" width="4.4" height="39.67" style="fill: rgb(235, 235, 235); transform-origin: 114.94px 292.225px;" id="elhzxrxevnlpq" class="animable"></rect><rect x="89.85" y="319.19" width="154.75" height="45.09" style="fill: rgb(224, 224, 224); transform-origin: 167.225px 341.735px;" id="elq2y6g3lqcu" class="animable"></rect><rect x="178.67" y="326.49" width="8.79" height="37.79" style="fill: rgb(235, 235, 235); transform-origin: 183.065px 345.385px;" id="elqsb08wwx07" class="animable"></rect><g id="elp3hel7mn1pl"><rect x="230.2" y="326.02" width="8.79" height="37.79" style="fill: rgb(235, 235, 235); transform-origin: 234.595px 344.915px; transform: rotate(-9.78deg);" class="animable"></rect></g><rect x="147.06" y="331.47" width="8.79" height="32.81" style="fill: rgb(235, 235, 235); transform-origin: 151.455px 347.875px;" id="elzwb0d02tavj" class="animable"></rect><rect x="167.27" y="331.47" width="8.79" height="32.81" style="fill: rgb(235, 235, 235); transform-origin: 171.665px 347.875px;" id="elielz5dzlw1i" class="animable"></rect><rect x="218.27" y="331.47" width="8.79" height="32.81" style="fill: rgb(235, 235, 235); transform-origin: 222.665px 347.875px;" id="elb3twa7n2jq" class="animable"></rect><g id="el1udpkxpny94"><rect x="193.88" y="330.91" width="8.79" height="32.81" style="fill: rgb(235, 235, 235); transform-origin: 198.275px 347.315px; transform: rotate(-12.53deg);" class="animable"></rect></g><rect x="159.06" y="324.62" width="4.4" height="39.67" style="fill: rgb(235, 235, 235); transform-origin: 161.26px 344.455px;" id="elgpm8n5rzopf" class="animable"></rect><rect x="211.35" y="324.62" width="4.4" height="39.67" style="fill: rgb(235, 235, 235); transform-origin: 213.55px 344.455px;" id="ellxigtu1locf" class="animable"></rect><g id="el8cnk8qfn91"><rect x="129.07" y="326.02" width="8.79" height="37.79" style="fill: rgb(235, 235, 235); transform-origin: 133.465px 344.915px; transform: rotate(-9.78deg);" class="animable"></rect></g><rect x="117.13" y="331.47" width="8.79" height="32.81" style="fill: rgb(235, 235, 235); transform-origin: 121.525px 347.875px;" id="ela8xtvd64mq9" class="animable"></rect><g id="elx1qfscv8co"><rect x="92.75" y="330.91" width="8.79" height="32.81" style="fill: rgb(235, 235, 235); transform-origin: 97.145px 347.315px; transform: rotate(-12.53deg);" class="animable"></rect></g><rect x="110.21" y="324.62" width="4.4" height="39.67" style="fill: rgb(235, 235, 235); transform-origin: 112.41px 344.455px;" id="el8ckjo71stf4" class="animable"></rect></g><g id="freepik--Shadow--inject-144" class="animable" style="transform-origin: 250px 416.24px;"><ellipse id="freepik--path--inject-144" cx="250" cy="416.24" rx="193.89" ry="11.32" style="fill: rgb(245, 245, 245); transform-origin: 250px 416.24px;" class="animable"></ellipse></g><g id="freepik--Plant--inject-144" class="animable" style="transform-origin: 144.727px 373.097px;"><path d="M137,340.17c.21,1.47-3.78,2.43-7,3,.26,2.66,2,5.36,4.49,7.88,3.09-1.74,7.49-4,8.3-3.47s-3.62,3.53-6.44,5.24a58,58,0,0,0,6.39,4.84c1.38-1.29,3-2.43,4-1.81s.73,2.63.23,4.42c3.36,1.95,5.87,3.14,5.87,3.14a67.5,67.5,0,0,0,2.24-9.53c-.16-.33-.33-.67-.49-1-.54-1.26,0-1.79.88-2a33.63,33.63,0,0,0,.06-6.87c-3.8-.8-8.42-2.27-6.69-4.55,1-1.37,3-1.53,4.94-1.18a8.61,8.61,0,0,0-.94-1.28c-6.91-7.62-11.74,0-11.74,0-4-3.35-9.66-2.44-10.88,2.79C132.46,339.21,136.78,338.35,137,340.17Z" style="fill: rgb(64, 123, 255); transform-origin: 142.839px 348.512px;" id="el7eze8hj2dur" class="animable"></path><g id="elirt7k71mexs"><path d="M137,340.17c.21,1.47-3.78,2.43-7,3,.26,2.66,2,5.36,4.49,7.88,3.09-1.74,7.49-4,8.3-3.47s-3.62,3.53-6.44,5.24a58,58,0,0,0,6.39,4.84c1.38-1.29,3-2.43,4-1.81s.73,2.63.23,4.42c3.36,1.95,5.87,3.14,5.87,3.14a67.5,67.5,0,0,0,2.24-9.53c-.16-.33-.33-.67-.49-1-.54-1.26,0-1.79.88-2a33.63,33.63,0,0,0,.06-6.87c-3.8-.8-8.42-2.27-6.69-4.55,1-1.37,3-1.53,4.94-1.18a8.61,8.61,0,0,0-.94-1.28c-6.91-7.62-11.74,0-11.74,0-4-3.35-9.66-2.44-10.88,2.79C132.46,339.21,136.78,338.35,137,340.17Z" style="fill: rgb(255, 255, 255); isolation: isolate; opacity: 0.3; transform-origin: 142.839px 348.512px;" class="animable"></path></g><path d="M145.66,396.15l-1-.08c0-.52,4.09-51.53-7.36-56.33a3.88,3.88,0,0,0-3.47.08c-4.13,2.15-6.12,11.08-6.14,11.18l-1-.22c.08-.38,2.1-9.48,6.65-11.84a4.85,4.85,0,0,1,4.32-.13C149.81,343.9,145.84,394,145.66,396.15Z" style="fill: rgb(64, 123, 255); transform-origin: 136.556px 367.257px;" id="el1goa54jt9lp" class="animable"></path><path d="M147.11,395.05c-.21-2.3-4.88-56.27,3.86-62,2.09-1.37,4-1.67,5.55-.86,4.13,2.08,4.67,10.91,4.69,11.28l-1,.06c0-.09-.53-8.63-4.14-10.45-1.25-.63-2.78-.36-4.55.8-8.24,5.41-3.47,60.52-3.42,61.08Z" style="fill: rgb(64, 123, 255); transform-origin: 153.444px 363.397px;" id="elgj2p8f15h5s" class="animable"></path><path d="M148.42,399.41c-.07-1.76-1.5-43.07,6.45-46.69a5.59,5.59,0,0,1,4.73,0c5.47,2.41,8.84,12.58,9,13l-1,.31c0-.1-3.38-10.18-8.43-12.4a4.54,4.54,0,0,0-3.91,0c-6.1,2.78-6.31,34-5.87,45.74Z" style="fill: rgb(64, 123, 255); transform-origin: 158.439px 375.803px;" id="elazr44esrgb6" class="animable"></path><path d="M146.4,397.52l-1-.11c1.4-12.3,4.08-45.07-.29-49a1.73,1.73,0,0,0-1.8-.56c-2.93,1.13-4.72,11.79-5.16,15.8l-1-.11c.17-1.54,1.77-15.07,5.8-16.62a2.64,2.64,0,0,1,2.81.74C151.43,352.74,146.6,395.69,146.4,397.52Z" style="fill: rgb(64, 123, 255); transform-origin: 142.829px 372.151px;" id="elrx32yk52uz" class="animable"></path><polygon points="129.71 374.21 165.63 374.21 162.63 414.45 132.71 414.45 129.71 374.21" style="fill: rgb(38, 50, 56); transform-origin: 147.67px 394.33px;" id="ele8p80jbxup7" class="animable"></polygon><path d="M134.6,359.44c-.37,1-3.16.21-5.35-.57-.76,1.74-.58,4,.06,6.4,2.5,0,6,.08,6.32.71s-3.45.93-5.78,1a41.47,41.47,0,0,0,2.28,5.18c1.3-.33,2.69-.47,3.07.24s-.45,1.87-1.37,2.81c1.4,2.35,2.54,3.95,2.54,3.95a46.9,46.9,0,0,0,4.65-5.11c0-.26,0-.53,0-.8.1-1,.61-1.11,1.22-.91a23.57,23.57,0,0,0,2.38-4.21c-2.07-1.8-4.41-4.29-2.56-5.1,1.11-.49,2.35.07,3.45,1a5.11,5.11,0,0,0-.14-1.11c-1.65-7.07-7.24-4-7.24-4-1.33-3.45-5.12-4.82-7.66-2C132.11,357.28,135.06,358.23,134.6,359.44Z" style="fill: rgb(64, 123, 255); transform-origin: 137.131px 367.282px;" id="elh222k0mq82" class="animable"></path><g id="elb9gbisnls6d"><path d="M134.6,359.44c-.37,1-3.16.21-5.35-.57-.76,1.74-.58,4,.06,6.4,2.5,0,6,.08,6.32.71s-3.45.93-5.78,1a41.47,41.47,0,0,0,2.28,5.18c1.3-.33,2.69-.47,3.07.24s-.45,1.87-1.37,2.81c1.4,2.35,2.54,3.95,2.54,3.95a46.9,46.9,0,0,0,4.65-5.11c0-.26,0-.53,0-.8.1-1,.61-1.11,1.22-.91a23.57,23.57,0,0,0,2.38-4.21c-2.07-1.8-4.41-4.29-2.56-5.1,1.11-.49,2.35.07,3.45,1a5.11,5.11,0,0,0-.14-1.11c-1.65-7.07-7.24-4-7.24-4-1.33-3.45-5.12-4.82-7.66-2C132.11,357.28,135.06,358.23,134.6,359.44Z" style="fill: rgb(255, 255, 255); isolation: isolate; opacity: 0.3; transform-origin: 137.131px 367.282px;" class="animable"></path></g><path d="M161.28,364.22a13.57,13.57,0,0,0-3.29.69,7.93,7.93,0,0,1-.48-2.38c-.23-7.24,5-4.19,7.7-6.32a5.91,5.91,0,0,1,4.59-1.43,8.44,8.44,0,0,0-.62,1.24,1.14,1.14,0,0,0,.87,1.55,3.33,3.33,0,0,0,2-.25,3,3,0,0,0,.52-.36,10.35,10.35,0,0,1,1,2.43,13.42,13.42,0,0,1,.46,3.09,11,11,0,0,0-1.21.35,1.13,1.13,0,0,0-.45,1.72,5.45,5.45,0,0,0,1.49,1.05A16.26,16.26,0,0,1,173,369l-.37.06c-.26.05-.52.12-.78.19l-.43.16a1.16,1.16,0,0,0-.68.88,1.12,1.12,0,0,0,.43,1.05,3.71,3.71,0,0,0,.54.33,8.12,8.12,0,0,1-2.87,2.9,29.51,29.51,0,0,1-3.06-1.62c.22-.29.44-.58.64-.88a1.71,1.71,0,0,0,.31-1.14,1.55,1.55,0,0,0-1.73-1.33,1.57,1.57,0,0,0-1,.59c-.24.36-.51.7-.77,1a19.11,19.11,0,0,1-3.68-3.57l.11,0a12.77,12.77,0,0,1,2-.34,1.54,1.54,0,0,0-.39-3Z" style="fill: rgb(64, 123, 255); transform-origin: 165.766px 364.655px;" id="ellfbu7m80ay" class="animable"></path><g id="eln4may4vtmp"><path d="M161.28,364.22a13.57,13.57,0,0,0-3.29.69,7.93,7.93,0,0,1-.48-2.38c-.23-7.24,5-4.19,7.7-6.32a5.91,5.91,0,0,1,4.59-1.43,8.44,8.44,0,0,0-.62,1.24,1.14,1.14,0,0,0,.87,1.55,3.33,3.33,0,0,0,2-.25,3,3,0,0,0,.52-.36,10.35,10.35,0,0,1,1,2.43,13.42,13.42,0,0,1,.46,3.09,11,11,0,0,0-1.21.35,1.13,1.13,0,0,0-.45,1.72,5.45,5.45,0,0,0,1.49,1.05A16.26,16.26,0,0,1,173,369l-.37.06c-.26.05-.52.12-.78.19l-.43.16a1.16,1.16,0,0,0-.68.88,1.12,1.12,0,0,0,.43,1.05,3.71,3.71,0,0,0,.54.33,8.12,8.12,0,0,1-2.87,2.9,29.51,29.51,0,0,1-3.06-1.62c.22-.29.44-.58.64-.88a1.71,1.71,0,0,0,.31-1.14,1.55,1.55,0,0,0-1.73-1.33,1.57,1.57,0,0,0-1,.59c-.24.36-.51.7-.77,1a19.11,19.11,0,0,1-3.68-3.57l.11,0a12.77,12.77,0,0,1,2-.34,1.54,1.54,0,0,0-.39-3Z" style="fill: rgb(255, 255, 255); isolation: isolate; opacity: 0.5; transform-origin: 165.766px 364.655px;" class="animable"></path></g><path d="M163.35,339.24a9,9,0,0,1,2-1.08,5.17,5.17,0,0,0-.79-1.46c-3.06-3.91-4.44,0-6.82.06a4,4,0,0,0-3,1.26,6.68,6.68,0,0,1,.87.37.77.77,0,0,1,.22,1.2,2.3,2.3,0,0,1-1.17.77,3.27,3.27,0,0,1-.44,0,7.53,7.53,0,0,0,.54,1.71,9.55,9.55,0,0,0,1.12,1.83,6.86,6.86,0,0,1,.78-.35.78.78,0,0,1,1,.71,3.51,3.51,0,0,1-.33,1.2,11.75,11.75,0,0,0,2,1.39l.22-.13.5-.25a1.32,1.32,0,0,1,.3-.1.77.77,0,0,1,.74.16.78.78,0,0,1,.23.74,2.21,2.21,0,0,1-.14.41,5.5,5.5,0,0,0,2.78.26,20.83,20.83,0,0,0,.9-2.19l-.72-.18a1.16,1.16,0,0,1-.66-.46,1.07,1.07,0,0,1-.14-.8,1,1,0,0,1,.46-.66,1.07,1.07,0,0,1,.8-.14c.28.08.57.14.85.21a13.11,13.11,0,0,0,.37-3.49l-.07,0a7.6,7.6,0,0,0-1.23.72,1.05,1.05,0,0,1-1.13-1.78Z" style="fill: rgb(64, 123, 255); transform-origin: 160.023px 341.489px;" id="elxo4u6ci9kp" class="animable"></path><g id="elzr7vb04zn9"><path d="M163.35,339.24a9,9,0,0,1,2-1.08,5.17,5.17,0,0,0-.79-1.46c-3.06-3.91-4.44,0-6.82.06a4,4,0,0,0-3,1.26,6.68,6.68,0,0,1,.87.37.77.77,0,0,1,.22,1.2,2.3,2.3,0,0,1-1.17.77,3.27,3.27,0,0,1-.44,0,7.53,7.53,0,0,0,.54,1.71,9.55,9.55,0,0,0,1.12,1.83,6.86,6.86,0,0,1,.78-.35.78.78,0,0,1,1,.71,3.51,3.51,0,0,1-.33,1.2,11.75,11.75,0,0,0,2,1.39l.22-.13.5-.25a1.32,1.32,0,0,1,.3-.1.77.77,0,0,1,.74.16.78.78,0,0,1,.23.74,2.21,2.21,0,0,1-.14.41,5.5,5.5,0,0,0,2.78.26,20.83,20.83,0,0,0,.9-2.19l-.72-.18a1.16,1.16,0,0,1-.66-.46,1.07,1.07,0,0,1-.14-.8,1,1,0,0,1,.46-.66,1.07,1.07,0,0,1,.8-.14c.28.08.57.14.85.21a13.11,13.11,0,0,0,.37-3.49l-.07,0a7.6,7.6,0,0,0-1.23.72,1.05,1.05,0,0,1-1.13-1.78Z" style="fill: rgb(255, 255, 255); isolation: isolate; opacity: 0.3; transform-origin: 160.023px 341.489px;" class="animable"></path></g><path d="M134.08,346.49c-.21,1.47,3.78,2.44,7,3-.27,2.67-2,5.37-4.5,7.89-3.08-1.74-7.49-4-8.3-3.48s3.63,3.53,6.45,5.24a56.48,56.48,0,0,1-6.39,4.84c-1.39-1.29-3-2.42-4-1.81s-.73,2.64-.24,4.42c-3.35,2-5.87,3.15-5.87,3.15a67.5,67.5,0,0,1-2.24-9.53c.17-.33.34-.67.49-1,.54-1.25,0-1.78-.88-2a33.52,33.52,0,0,1,0-6.86c3.8-.8,8.42-2.28,6.69-4.55-1-1.38-3-1.53-4.94-1.19a7.9,7.9,0,0,1,.93-1.28c6.92-7.62,11.74,0,11.74,0,4-3.35,9.66-2.44,10.88,2.79C138.66,345.53,134.34,344.67,134.08,346.49Z" style="fill: rgb(64, 123, 255); transform-origin: 128.252px 354.842px;" id="elb6u7bchjj95" class="animable"></path><g id="eliq2bxviy12k"><path d="M134.08,346.49c-.21,1.47,3.78,2.44,7,3-.27,2.67-2,5.37-4.5,7.89-3.08-1.74-7.49-4-8.3-3.48s3.63,3.53,6.45,5.24a56.48,56.48,0,0,1-6.39,4.84c-1.39-1.29-3-2.42-4-1.81s-.73,2.64-.24,4.42c-3.35,2-5.87,3.15-5.87,3.15a67.5,67.5,0,0,1-2.24-9.53c.17-.33.34-.67.49-1,.54-1.25,0-1.78-.88-2a33.52,33.52,0,0,1,0-6.86c3.8-.8,8.42-2.28,6.69-4.55-1-1.38-3-1.53-4.94-1.19a7.9,7.9,0,0,1,.93-1.28c6.92-7.62,11.74,0,11.74,0,4-3.35,9.66-2.44,10.88,2.79C138.66,345.53,134.34,344.67,134.08,346.49Z" style="fill: rgb(255, 255, 255); isolation: isolate; opacity: 0.5; transform-origin: 128.252px 354.842px;" class="animable"></path></g></g><g id="freepik--Heart--inject-144" class="animable" style="transform-origin: 210.141px 237.239px;"><path d="M205.51,288c0,6.47-1.48,21.85-2.38,30.7-.41,3.95-.71,6.6-.71,6.6-7,2.79-13.77-1.83-13.77-1.83a143.27,143.27,0,0,0-.39-15,209.71,209.71,0,0,0-3-22.9S205.51,278.68,205.51,288Z" style="fill: rgb(64, 123, 255); transform-origin: 195.385px 304.657px;" id="elifs2bmlkpy9" class="animable"></path><g id="el4mivn6eukcs"><path d="M205.51,288c0,6.47-1.48,21.85-2.38,30.7-.41,3.95-.71,6.6-.71,6.6-7,2.79-13.77-1.83-13.77-1.83a143.27,143.27,0,0,0-.39-15,209.71,209.71,0,0,0-3-22.9S205.51,278.68,205.51,288Z" style="opacity: 0.2; transform-origin: 195.385px 304.657px;" class="animable"></path></g><g id="eliri1fgd4fsp"><path d="M205.51,288c0,6.47-1.48,21.85-2.38,30.7-5.29-1.34-10.37-5.34-14.87-10.25a209.71,209.71,0,0,0-3-22.9S205.51,278.68,205.51,288Z" style="opacity: 0.2; transform-origin: 195.385px 300.906px;" class="animable"></path></g><path d="M224.64,177.19c-4.87,2.07-7.88,3.66-7.88,3.66-46.11-16.85-82.09,9.39-82.09,9.39a9.63,9.63,0,0,0,8.85,7.89c29.09-13.63,47.77-10.73,50.19,8.6,0,0,15.58,11.21,30.93,11Z" style="fill: rgb(64, 123, 255); transform-origin: 179.655px 196.469px;" id="elzxqlyrfuzv" class="animable"></path><g id="el3pm7l4wy568"><path d="M224.64,177.19c-4.87,2.07-7.88,3.66-7.88,3.66-46.11-16.85-82.09,9.39-82.09,9.39a9.63,9.63,0,0,0,8.85,7.89c29.09-13.63,47.77-10.73,50.19,8.6,0,0,15.58,11.21,30.93,11Z" style="opacity: 0.2; transform-origin: 179.655px 196.469px;" class="animable"></path></g><g id="elhh14sk0fq95"><path d="M224.64,177.19v40.52c-15.35.23-30.93-11-30.93-11-2.43-19.33-21.1-22.23-50.2-8.59a9.64,9.64,0,0,1-8.84-7.9s36-26.24,82.09-9.4C216.76,180.84,219.77,179.27,224.64,177.19Z" style="fill: rgb(255, 255, 255); opacity: 0.1; transform-origin: 179.655px 196.447px;" class="animable"></path></g><g id="el9wm5p7k2gv9"><path d="M224.64,196.64v21.07c-15.35.23-30.93-11-30.93-11-2.43-19.33-21.1-22.23-50.2-8.59a9.64,9.64,0,0,1-8.84-7.9s4.49,5.29,9.27,4.13,21.94-12.74,35.71-8.35,19.12,8.57,19.12,8.57,5.34-11.21,18-13.75c0,0-7,3.29-3.2,9.24C215.61,193.31,220.55,195.41,224.64,196.64Z" style="opacity: 0.2; transform-origin: 179.655px 199.267px;" class="animable"></path></g><path d="M161.88,216c.76-23.13,36.88-47.31,28.66-73.74a12.19,12.19,0,0,1,11.09-1.58s.34,10.7,9.35,11.48,13-12.91,13-12.91,6.75-1.05,9.56,2.1c0,0-2.25,13.57,3.94,19s16.31-4.08,16.31-4.08,6.55,2.54,5.52,5.77c0,0-7.21,5.37-5.52,12.17s5.06,11.42,2.25,26-23.06-5.37-23.06-5.37,2.25-15.78-11.25-17.33-24.22,17.19-22,34.53Z" style="fill: rgb(64, 123, 255); transform-origin: 210.65px 177.541px;" id="el2seezo8nhtt" class="animable"></path><g id="elfcaly65e337"><path d="M259.26,162.1s-7.21,5.38-5.52,12.18c1,4,2.55,7.22,3.11,12.13a44.9,44.9,0,0,1-.86,13.85c-2.81,14.56-23.06-5.38-23.06-5.38s2.25-15.77-11.24-17.32-24.22,17.19-21.95,34.53L161.88,216c.36-11,8.68-22.19,16.46-33.77,8.59-12.82,16.51-26.08,12.2-40a12.22,12.22,0,0,1,11.09-1.58s.33,10.7,9.35,11.48,13-12.91,13-12.91,6.74-1.06,9.56,2.1c0,0-2.25,13.57,3.93,19s16.31-4.07,16.31-4.07S260.3,158.88,259.26,162.1Z" style="opacity: 0.2; transform-origin: 210.626px 177.525px;" class="animable"></path></g><g id="elbpbkaju25zj"><path d="M256,200.26c-2.81,14.56-23.06-5.38-23.06-5.38s2.25-15.77-11.24-17.32-24.22,17.19-21.95,34.53L161.88,216c.36-11,8.68-22.19,16.46-33.77.76,6,3.08,15.68,10.09,15.89,10.18.29,13.43-27.09,34.8-24.86,19.69,2.05,20,13.62,33.62,13.13A44.9,44.9,0,0,1,256,200.26Z" style="opacity: 0.2; transform-origin: 209.464px 194.565px;" class="animable"></path></g><path d="M270.18,167.81c-24.41-2.3-53.42,13-53.42,13l-.56-.2v36.16c9,1.94,19,1.25,26.43-7.07,0,0-6.71-12.16-2.25-19.5,7-11.57,28.54-10.34,28.54-10.34C273.34,173.28,270.18,167.81,270.18,167.81Z" style="fill: rgb(64, 123, 255); transform-origin: 243.737px 192.623px;" id="elxet4cfk0r2s" class="animable"></path><g id="elhuvl28sw37r"><path d="M270.18,167.81c-24.41-2.3-53.42,13-53.42,13l-.56-.2v36.16c9,1.94,19,1.25,26.43-7.07,0,0-6.71-12.16-2.25-19.5,7-11.57,28.54-10.34,28.54-10.34C273.34,173.28,270.18,167.81,270.18,167.81Z" style="opacity: 0.2; transform-origin: 243.737px 192.623px;" class="animable"></path></g><g id="elhfzycmdwydv"><path d="M268.92,179.9s-21.51-1.23-28.54,10.34c-4.45,7.34,2.25,19.5,2.25,19.5-.43.48-.87.94-1.32,1.37-7.31,7-16.64,7.53-25.1,5.7V180.65l.55.19S244.85,166,269,167.71c.39,0,.78.07,1.18.1C270.18,167.81,273.35,173.28,268.92,179.9Z" style="fill: rgb(255, 255, 255); opacity: 0.1; transform-origin: 243.744px 192.641px;" class="animable"></path></g><g id="el5sutiwgms6"><path d="M268.92,179.9s-21.51-1.23-28.54,10.34c-4.45,7.34,2.25,19.5,2.25,19.5-.43.48-.87.94-1.32,1.37-6.34-7-8.83-16-7.12-23,3.38-13.83,32.06-11.68,32.06-11.68s-.54-8.14,2.75-8.7a2.6,2.6,0,0,1,1.18.1S273.35,173.28,268.92,179.9Z" style="opacity: 0.2; transform-origin: 252.472px 189.406px;" class="animable"></path></g><path d="M150.84,263.17s8.31,36.22,67.69,54.1c0,0,21,23.18,40.73,17.16s39.29-75.66,15.2-111.13c0,0,1.77-11.54-6.67-16.48,0,0-6.74-22.91-33.17-21.23s-46.2,20.65-46.2,20.65-13.19-1.31-14.14-50.91c0,0-16.75-12.1-28,3.45,0,0,6,41.59,1.06,53.31S135.64,251.8,150.84,263.17Z" style="fill: rgb(64, 123, 255); transform-origin: 213.55px 243.137px;" id="eldbcb2row6b" class="animable"></path><g id="eljbirnu60zn"><path d="M259.26,334.43c-13.84,4.22-28.27-5.89-35.68-12.33a67.18,67.18,0,0,1-5.05-4.84c-35.83-10.78-53.07-28.25-61.09-40.4-5.29-8-6.6-13.69-6.6-13.69-15.19-11.37-8.43-39.35-3.47-51.08A19,19,0,0,0,148.5,208c2.74-15.14-2.19-49.25-2.19-49.25,11.22-15.54,28-3.44,28-3.44.5,26.42,4.49,39.14,8.1,45.25,3.16,5.37,6.05,5.65,6.05,5.65a69,69,0,0,1,7-5.65c8-5.74,22.21-13.92,39.16-15,26.42-1.69,33.17,21.23,33.17,21.23,5.42,3.17,6.63,9.08,6.79,12.89a19.65,19.65,0,0,1-.13,3.59C298.55,258.77,279,328.4,259.26,334.43Z" style="opacity: 0.2; transform-origin: 213.555px 243.126px;" class="animable"></path></g><g id="elhbi64o0m8as"><path d="M182.38,200.59C165.85,196.86,148.5,208,148.5,208c2.74-15.14-2.19-49.25-2.19-49.25,11.22-15.54,28-3.44,28-3.44C174.78,181.76,178.77,194.48,182.38,200.59Z" style="fill: rgb(255, 255, 255); opacity: 0.2; transform-origin: 164.345px 179.411px;" class="animable"></path></g><g id="elhhjsji6o9ue"><path d="M175.43,204.64c6.42-.85,13.34,5.17,13,10.5s-7.37,25.87-13,31.21-16.58,12.59-19.39,8.82-4.5-7.93-1.69-12,1.69-3.44-.28-13-1.13-13.44.84-17.71S169.81,205.37,175.43,204.64Z" style="fill: rgb(255, 255, 255); opacity: 0.1; transform-origin: 170.675px 230.387px;" class="animable"></path></g><g id="ela2clwp6iizw"><path d="M202.71,202.22c2.94-6.52,23.52-16,39.44-12.8s21.09,12.67,18.47,13.76-13.56,1.68-9.42,3.21,15.76.91,15.89,6-12.21-3.74-24.94,3.87-18.29,27.21-26,23.29S194.83,219.66,202.71,202.22Z" style="fill: rgb(255, 255, 255); opacity: 0.1; transform-origin: 233.713px 214.421px;" class="animable"></path></g><g id="elblywu9cs4nm"><path d="M170.67,284.59c-6.52-6.12-.46-5.77,11.71-19.62s11.05-31.63,20-28.36,33.38,6.33,33.7,31.11S212,323.38,170.67,284.59Z" style="fill: rgb(255, 255, 255); opacity: 0.1; transform-origin: 202.047px 269.595px;" class="animable"></path></g><g id="el0o7e71k4oju"><path d="M236.12,241.19c-.41-10.4,18.24-21.2,32.05-12.38s16.64,47.27,7.5,71.63-25,33.64-28.82,27.85,4.35-39.77,1.19-60S236.37,247.27,236.12,241.19Z" style="fill: rgb(255, 255, 255); opacity: 0.1; transform-origin: 258.537px 277.758px;" class="animable"></path></g><g id="elnmmodzkl9lg"><g style="opacity: 0.2; transform-origin: 211.679px 258.66px;" class="animable"><path d="M220.33,237.34c.15,1,.22,2.32.5,3.47a11.79,11.79,0,0,0,1.26,3.36,6.16,6.16,0,0,0,2.55,2.46c-1.83-1.52-2.49-3.8-2.87-6-.09-.56-.15-1.12-.21-1.69s-.07-1.15-.16-1.77a8.37,8.37,0,0,0-1.34-3.42,7.3,7.3,0,0,1-.73-1.45,6.2,6.2,0,0,1-.2-.77,4,4,0,0,0-.33-1,9.2,9.2,0,0,0-2.61-2.66,51,51,0,0,0-6.05-3.66l-1.52-.82c-.11-.06-.26-.14-.27-.18a.93.93,0,0,1-.18-.2,3.58,3.58,0,0,1-.35-.65,26.42,26.42,0,0,1-1.08-3.22c-.32-1.11-.64-2.24-1-3.37-.18-.56-.38-1.12-.61-1.68-.11-.28-.25-.56-.37-.83a9.84,9.84,0,0,0-.52-.86,13.1,13.1,0,0,0-2.71-2.47c-1-.7-2-1.31-3-1.91s-2-1.12-3-1.64a27.33,27.33,0,0,0-.06-5.8,69,69,0,0,0-7,5.65s6.19,7.31,2.86,16.8a65.48,65.48,0,0,0,4.1-15.42c.85.47,1.7.94,2.53,1.44a32.81,32.81,0,0,1,2.85,1.9,12.7,12.7,0,0,1,2.43,2.22c.13.22.27.4.39.64s.23.5.33.77a16.88,16.88,0,0,1,.58,1.6c.36,1.08.67,2.2,1,3.32a26.11,26.11,0,0,0,1.14,3.4,4.59,4.59,0,0,0,.49.88,2.13,2.13,0,0,0,.66.64,6.64,6.64,0,0,1,.88,3.41,27.9,27.9,0,0,1-.36,4.14,29.13,29.13,0,0,0-.35,8.5c.22,1.42.54,2.76.71,4.16a34.58,34.58,0,0,1,.3,4.19c0,.71,0,1.42.11,2.12a13.88,13.88,0,0,0,.49,2.07,5.48,5.48,0,0,1-.8,4,5.56,5.56,0,0,0,.93-4,15.05,15.05,0,0,1-.42-2.06c-.06-.69,0-1.39,0-2.1a37.57,37.57,0,0,0-.17-4.24c-.12-1.4-.42-2.82-.59-4.18a28.81,28.81,0,0,1,.62-8.31,28.33,28.33,0,0,0,.5-4.26,8.85,8.85,0,0,0-.34-2.63l.28.15a49.75,49.75,0,0,1,5.94,3.49,8.34,8.34,0,0,1,2.3,2.24c.09.1.08.2.13.29a2,2,0,0,1,.1.37,6.34,6.34,0,0,0,.26.92,8.61,8.61,0,0,0,.84,1.66A7.05,7.05,0,0,1,220.33,237.34Z" id="elbik2ro18038" class="animable" style="transform-origin: 206.555px 228.795px;"></path><path d="M196.66,290.44a15.1,15.1,0,0,1-1-2.27c-.3-.79-.58-1.59-.83-2.4a7.52,7.52,0,0,0-1.54-2.32,47,47,0,0,0-8-6.7c-.73-.48-1.46-1-2.25-1.38a16.26,16.26,0,0,1-2.11-1.32,35.21,35.21,0,0,1-3.81-3.33A42.34,42.34,0,0,1,173,266.1c7.93-10.06,11.89-23.49,12.26-24.8C181,254.8,169,260,160.37,261.94a7.93,7.93,0,0,0-1.93-1.33c-.92-.46-1.82-.84-2.62-1.34a10,10,0,0,1-3.76-4.1,22.67,22.67,0,0,1-1.85-5,14.46,14.46,0,0,1,1-6.09,19.81,19.81,0,0,1,1.62-3.22c.64-1,1.38-2,2.13-3a15.57,15.57,0,0,0,1.94-3.17,9.28,9.28,0,0,0,.81-3.63c.08-2.51-1.19-4.79-1-7.26-.26,2.47.92,4.83.75,7.26a9.05,9.05,0,0,1-.9,3.46,14.72,14.72,0,0,1-2,3c-.76.93-1.58,1.89-2.27,2.92a20.06,20.06,0,0,0-1.8,3.28,18.31,18.31,0,0,0-1,3.17c-.18-1-.33-2-.43-3a37.86,37.86,0,0,1,.65-11.72,32.24,32.24,0,0,0,1-6,29.12,29.12,0,0,0-.71-6c-.12,2,0,4-.19,5.94a51.58,51.58,0,0,1-1.16,5.79A38.82,38.82,0,0,0,147.8,244a36.8,36.8,0,0,0,1,6,24.35,24.35,0,0,0,2.09,5.75,10.93,10.93,0,0,0,4.27,4.54c1.3.77,2.69,1.21,3.78,1.93a45.47,45.47,0,0,1-8.14.93s1.31,5.7,6.6,13.69c5.89-1.18,10.8-5.05,14.77-9.81l.47.64a38,38,0,0,0,3.45,3.94c.84.84,1.74,1.64,2.66,2.41a27.35,27.35,0,0,1,1,3.29c.28,1.22.54,2.46.8,3.7.52,2.47,1,5,1.7,7.41a27.15,27.15,0,0,0,1.25,3.62,12.73,12.73,0,0,0,2.08,3.21,25.19,25.19,0,0,0,5.72,5,25.45,25.45,0,0,1-5.51-5.15,15.56,15.56,0,0,1-3-6.8c-.59-2.45-1-4.94-1.44-7.43-.21-1.25-.43-2.5-.67-3.75-.13-.65-.26-1.29-.42-1.94a17.34,17.34,0,0,0,2.11,1.33c.73.39,1.45.84,2.17,1.3a45.55,45.55,0,0,1,7.9,6.37,6.49,6.49,0,0,1,1.36,1.91,24.34,24.34,0,0,0,1,2.43,10.67,10.67,0,0,0,1.41,2.26,4,4,0,0,0,1,.89,1.76,1.76,0,0,0,1.29.29A2.66,2.66,0,0,1,196.66,290.44Z" id="elcwn7ieano98" class="animable" style="transform-origin: 173.077px 260.21px;"></path><path d="M275,255.25a19.58,19.58,0,0,0,.67-6.34,24,24,0,0,0-1.27-6.24c-1.31-4-3.54-7.67-5.25-11.37a33.5,33.5,0,0,1-2.51-10.24,75.18,75.18,0,0,1,7.85,2.24,19.65,19.65,0,0,0,.13-3.59,27.49,27.49,0,0,0-10-2.53c0-.15-.05-.3-.06-.45a6.74,6.74,0,0,1,0-.89,4.41,4.41,0,0,0-.6-2.06c-.62-1.16-1.34-2.21-2-3.27a34.06,34.06,0,0,0-2.31-3.06,4.43,4.43,0,0,1-.91-1.44c-.23-.56-.44-1.15-.64-1.74a22.22,22.22,0,0,0-1.46-3.56,20.85,20.85,0,0,0-2.08-3.25,23.76,23.76,0,0,0-2.59-2.81,13.26,13.26,0,0,0-1.49-1.2,4.26,4.26,0,0,0-1.72-.81,8.36,8.36,0,0,1,2.91,2.31,23.29,23.29,0,0,1,2.29,3,22.85,22.85,0,0,1,1.84,3.22,29.4,29.4,0,0,1,1.26,3.49c.19.61.39,1.21.62,1.83a5.66,5.66,0,0,0,.9,1.56l-7-2.36a29.33,29.33,0,0,1-8-4.38A6.08,6.08,0,0,1,241,197.6a3,3,0,0,0-1.34-2,7.73,7.73,0,0,0-2.13-1c-3-1-6.13-1.11-9.12-2,3,.93,6.12,1.17,9,2.2a7.44,7.44,0,0,1,2,1,2.69,2.69,0,0,1,1.15,1.79,5,5,0,0,0,.87,2.23,9.26,9.26,0,0,0,1.6,1.76,30.23,30.23,0,0,0,8.1,4.73l8.46,3.12c.4.55.81,1.12,1.2,1.69.7,1,1.4,2.09,2,3.14a3.13,3.13,0,0,1,.53,1.5,7,7,0,0,0,0,1,2.87,2.87,0,0,0,0,.31,22.93,22.93,0,0,0-13.23,3.93c3.75-2,10-1.35,15.25-.26a38.53,38.53,0,0,0,.62,4.91,27.9,27.9,0,0,0,1.86,6.08c.08.18.17.37.26.55a12.43,12.43,0,0,1,.16,2.15c0,1-.06,2-.15,3a52.15,52.15,0,0,1-.92,6,35.88,35.88,0,0,1-1.67,5.79,12.5,12.5,0,0,1-1.36,2.62c-.26.39-.62.82-.9,1.25a12.2,12.2,0,0,0-.74,1.38,17.28,17.28,0,0,0-1.35,6,49.81,49.81,0,0,0,.08,6.11,37.28,37.28,0,0,1,0,6.07,11.74,11.74,0,0,1-2,5.65,11.84,11.84,0,0,0,2.17-5.64,37.54,37.54,0,0,0,.09-6.09,49.14,49.14,0,0,1,.06-6.07,16.87,16.87,0,0,1,1.43-5.8,11,11,0,0,1,.74-1.29c.28-.41.58-.75.9-1.2a13.47,13.47,0,0,0,1.5-2.73,36.82,36.82,0,0,0,1.83-5.86,51.73,51.73,0,0,0,1.06-6.05,27.89,27.89,0,0,0,.22-2.89,68.78,68.78,0,0,1,3.83,8.35,23,23,0,0,1,1.29,5.93,19.11,19.11,0,0,1-.54,6l-.7,3a30.16,30.16,0,0,0-.62,3.09,9,9,0,0,0,.19,3.19c.24,1,.47,2,.74,3.05-.08-1-.22-2.08-.31-3.11a8.91,8.91,0,0,1,.08-3C273.82,259.28,274.42,257.26,275,255.25Z" id="el6ei3d2ndv5" class="animable" style="transform-origin: 252.057px 235.45px;"></path><path d="M243.18,320.66a13.38,13.38,0,0,0-1.2-3.34,11.66,11.66,0,0,0-1.09-1.47,6.07,6.07,0,0,1-.79-1.32,29.83,29.83,0,0,1-1.71-6.48c-.11-.64-.2-1.28-.29-1.91,7.62-17.54,4.67-41.16,4.67-41.16.41,14.4-5.38,27.21-11.4,36.55a36.53,36.53,0,0,1-.42-8c.15-2.89.53-5.81.58-8.79a50,50,0,0,0-.88-8.82,45.24,45.24,0,0,0-2.22-8.52,32.9,32.9,0,0,1,.86,4.29c.23,1.45.42,2.9.59,4.35a59,59,0,0,1,.53,8.68c0,1.52-.2,3.06-.35,4.6a43.82,43.82,0,0,1-3.81-4.56,20.93,20.93,0,0,1-3.3-6.4A21.16,21.16,0,0,0,225.8,285a45.19,45.19,0,0,0,4.13,5.63c-.09.92-.17,1.85-.21,2.79a39.05,39.05,0,0,0,0,4.46,32.72,32.72,0,0,0,.66,4.42l.52-.11a86.19,86.19,0,0,1-12.4,15.05,67.18,67.18,0,0,0,5.05,4.84,25.36,25.36,0,0,0,5.71-3.64,6.46,6.46,0,0,0,1,.8c1.86,1.24,5.22,1.75,8.19,2.2,2,.3,4,.61,4.54,1.05l0,0c.05.06.08.13.13.19a5.67,5.67,0,0,0,1.51,1.1,8.74,8.74,0,0,0,3.4.94,24.66,24.66,0,0,1-2.95-1.69A4.74,4.74,0,0,1,243.18,320.66Zm-4.58-.26c-2.72-.41-6.09-.91-7.76-2a4.63,4.63,0,0,1-.74-.61,32.35,32.35,0,0,0,7-9.54v0a27.94,27.94,0,0,0,1.82,6.81,7.31,7.31,0,0,0,1,1.6,10,10,0,0,1,1,1.27,13,13,0,0,1,1.18,3.1h0C241.27,320.82,240.09,320.63,238.6,320.4Z" id="elroonf6tuqxr" class="animable" style="transform-origin: 233.265px 294.85px;"></path></g></g></g><g id="freepik--speech-bubble--inject-144" class="animable" style="transform-origin: 307.755px 129.305px;"><path d="M303.61,136.88s1.85,10.17,15.3,14.77c0,0-7.65-7.39-7.65-14.77Z" style="fill: rgb(64, 123, 255); transform-origin: 311.26px 144.265px;" id="ell94sprj9tp" class="animable"></path><g id="el6hzl4jew7kk"><path d="M303.61,136.88s1.85,10.17,15.3,14.77c0,0-7.65-7.39-7.65-14.77Z" style="fill: rgb(255, 255, 255); opacity: 0.6; transform-origin: 311.26px 144.265px;" class="animable"></path></g><rect x="289.69" y="106.96" width="36.13" height="36.13" rx="3.03" style="fill: rgb(64, 123, 255); transform-origin: 307.755px 125.025px;" id="elretz6ez0n9" class="animable"></rect><g id="elpt31c93fl1b"><rect x="289.69" y="106.96" width="36.13" height="36.13" rx="3.03" style="fill: rgb(255, 255, 255); opacity: 0.6; transform-origin: 307.755px 125.025px;" class="animable"></rect></g><path d="M297.35,118.16c2.75-4.32,7.85-2.57,10.45.85,2.7-3.34,7.85-5,10.48-.55,4.42,7.41-5,14.09-9.45,16.69-.5.3-.92.55-1.27.74-.34-.2-.75-.46-1.24-.77C302,132.39,292.72,125.45,297.35,118.16Z" style="fill: rgb(64, 123, 255); transform-origin: 307.76px 125.747px;" id="ely28jbxgcdw" class="animable"></path><path d="M304.76,130.4l-1.6-7.68-.57,2H292.52a.5.5,0,0,1,0-1h9.32l1.47-5.07,1.67,8,2-6.23,1.48,4.61,1.57-6.6,1.41,7,.92-1.68h10.35a.5.5,0,0,1,0,1H313L311,128.23,310,123l-1.35,5.66L307,123.57Z" style="fill: rgb(255, 255, 255); transform-origin: 307.615px 124.415px;" id="elxk8gn84j0xr" class="animable"></path></g><g id="freepik--Character--inject-144" class="animable" style="transform-origin: 320.562px 280.648px;"><path d="M328.13,186.17c-2.41-6.69.65-18.56.69-18.69a.24.24,0,1,0-.47-.12c-.16.59-3.48,13.49-.22,20Z" style="fill: rgb(38, 50, 56); transform-origin: 327.765px 177.269px;" id="el18spp4blni3" class="animable"></path><g id="elhhqyn4fd99i"><path d="M328.13,186.17c-2.41-6.69.65-18.56.69-18.69a.24.24,0,1,0-.47-.12c-.16.59-3.48,13.49-.22,20Z" style="fill: rgb(255, 255, 255); opacity: 0.6; transform-origin: 327.765px 177.269px;" class="animable"></path></g><path d="M261.83,197.27l2.43-1.08a3.08,3.08,0,0,1,2.83.16l4,2.38a5.78,5.78,0,0,1,2.82,4.48l.1,1.15c-3.91,2.07-9.66,1.43-9.66,1.43h-1.66a2.57,2.57,0,0,1-2.65-2.53l0-3.29A3,3,0,0,1,261.83,197.27Z" style="fill: rgb(206, 122, 99); transform-origin: 267.025px 200.902px;" id="eligv61oqgz6l" class="animable"></path><path d="M272.1,199.46c3.89,1.49,16.18,10.46,16.18,10.46l-3.2,4.49-13.45-10.75Z" style="fill: rgb(206, 122, 99); transform-origin: 279.955px 206.935px;" id="el28zhrmrn34t" class="animable"></path><path d="M316.6,191.84c-6.47,3.14-14,21-18.36,21s-19.33-10.78-19.33-10.78l-4,6.52S287.14,225,295.76,226s25.34-17.09,25.34-17.09Z" style="fill: rgb(64, 123, 255); transform-origin: 298.005px 208.94px;" id="el6fpzu9sld2r" class="animable"></path><g id="elnos6g0gi9ha"><path d="M321.1,208.93s-1.52,1.65-3.89,3.92c-1.95,1.89-4.49,4.19-7.21,6.36-4.89,3.87-10.38,7.25-14.24,6.81-8.62-1-20.84-17.39-20.84-17.39l4-6.52s15,10.81,19.32,10.77,11.9-17.9,18.38-21Z" style="fill: rgb(255, 255, 255); opacity: 0.6; transform-origin: 298.01px 208.969px;" class="animable"></path></g><g id="el3k6mhqod6je"><path d="M317.21,212.85c-1.95,1.89-4.49,4.19-7.21,6.36.74-7.34,6.49-13.39,6.49-13.39C317.3,207.48,317.45,210.06,317.21,212.85Z" style="opacity: 0.2; transform-origin: 313.657px 212.515px;" class="animable"></path></g><path d="M318.41,258.63c1.92,13-7,76.09-7,76.09l64.31-1.11L353.5,230.36l-3.63-44.86H334.18S310.08,201.84,318.41,258.63Z" style="fill: rgb(64, 123, 255); transform-origin: 343.565px 260.11px;" id="elucs17543tm" class="animable"></path><g id="elx55pcchvs8"><path d="M318.41,258.63c1.92,13-7,76.09-7,76.09l64.31-1.11L353.5,230.36l-3.63-44.86H334.18S310.08,201.84,318.41,258.63Z" style="fill: rgb(255, 255, 255); opacity: 0.6; transform-origin: 343.565px 260.11px;" class="animable"></path></g><g id="elhhlzyxt89xw"><path d="M318.41,258.63c1.92,13-7,76.09-7,76.09l64.31-1.11L353.5,230.36l-3.63-44.86H334.18S310.08,201.84,318.41,258.63Z" style="opacity: 0.2; transform-origin: 343.565px 260.11px;" class="animable"></path></g><path d="M319.94,244.47s-3.74,16.52-1.15,22.85,27,4.35,27,4.35V239.06Z" style="fill: rgb(38, 50, 56); transform-origin: 331.833px 255.512px;" id="elni39zri0m88" class="animable"></path><g id="elu830oz0njrh"><path d="M319.94,244.47s-3.74,16.52-1.15,22.85,27,4.35,27,4.35V239.06Z" style="fill: rgb(255, 255, 255); opacity: 0.2; transform-origin: 331.833px 255.512px;" class="animable"></path></g><path d="M355.13,400.25c-1.91,2.53-2.26,1.88-4.07,4.45a66.61,66.61,0,0,1-9.74,11.85c-1.92,1.76-5.67.57-3.24-2,3-3.19,4.61-10.45,4.09-14.22a6.2,6.2,0,0,0-.3-1.25l6.57-4.85h0a27.62,27.62,0,0,0,4.95,1.46A3,3,0,0,1,355.13,400.25Z" style="fill: rgb(38, 50, 56); transform-origin: 346.458px 405.808px;" id="elqgd8v3tx9xo" class="animable"></path><path d="M341.29,377.8c2.25,5.67,4.62,11.21,7.21,16.21a1.94,1.94,0,0,1-.05.2h0c-.56,1.76-5,7.17-6.06,6.33l-.21-.23c-.54-.58-2-2.18-4.1-4.55-11.58-13.05-42.29-49.37-40.34-65.16,2.45-19.87,21.44-74.15,21.44-74.15l30.7,4.86S346,288,317.78,329.75C326.93,336.14,333.38,357.83,341.29,377.8Z" style="fill: rgb(38, 50, 56); transform-origin: 323.766px 328.539px;" id="el7q6zikt3yk3" class="animable"></path><g id="el1sni0ch4i3f"><path d="M341.29,377.8c2.25,5.67,4.62,11.21,7.21,16.21a1.94,1.94,0,0,1-.05.2h0c-.56,1.76-5,7.17-6.06,6.33l-.21-.23c-.54-.58-2-2.18-4.1-4.55-11.58-13.05-42.29-49.37-40.34-65.16,2.45-19.87,21.44-74.15,21.44-74.15l30.7,4.86S346,288,317.78,329.75C326.93,336.14,333.38,357.83,341.29,377.8Z" style="fill: rgb(255, 255, 255); opacity: 0.2; transform-origin: 323.766px 328.539px;" class="animable"></path></g><g id="elrelkxnlxc8o"><path d="M355.13,400.25c-1.91,2.53-2.26,1.88-4.07,4.45a66.61,66.61,0,0,1-9.74,11.85c-1.92,1.76-5.67.57-3.24-2,3-3.19,4.61-10.45,4.09-14.22-.54-.58-2-2.18-4.1-4.55,1.61-7.07,2.64-13.72,3.22-18,2.25,5.67,4.62,11.21,7.21,16.21a1.94,1.94,0,0,1-.05.2,27.62,27.62,0,0,0,4.95,1.46A3,3,0,0,1,355.13,400.25Z" style="opacity: 0.2; transform-origin: 346.47px 397.583px;" class="animable"></path></g><g id="elrq4cznvkhgr"><path d="M332.51,275.54s-1.54,20-1.95,33.54c3.72-6.63,6.74-12.67,9.18-18.07Z" style="opacity: 0.2; transform-origin: 335.15px 292.31px;" class="animable"></path></g><path d="M335.39,418.35c6.6,0,7.48-.1,11.19-.22,3.18-.12,3.94.28,6.49.22,2.14,0,2.06-2.09,1.4-4.44-.33-1.18-.84-3.67-1.29-5.58l-9.68-.7c-1.36,2.6-4.44,6.31-8.16,6.81C331.79,414.91,332.75,418.35,335.39,418.35Z" style="fill: rgb(38, 50, 56); transform-origin: 343.955px 412.993px;" id="eldihc6nwssy7" class="animable"></path><path d="M328.37,237.49s7.07,54.66,11.12,81c4.25,27.63,4.79,72,3.72,90,1.55.9,7.16.27,10.21-.68,0,0,18.33-59.26,4.87-86.61,8.71-63.93-3.9-79.58-3.9-79.58Z" style="fill: rgb(38, 50, 56); transform-origin: 345.798px 323.207px;" id="eliuh469xhvsa" class="animable"></path><g id="elush8cbn2f78"><path d="M328.37,237.49s7.07,54.66,11.12,81c4.25,27.63,4.79,72,3.72,90,1.55.9,7.16.27,10.21-.68,0,0,18.33-59.26,4.87-86.61,8.71-63.93-3.9-79.58-3.9-79.58Z" style="fill: rgb(255, 255, 255); opacity: 0.2; transform-origin: 345.798px 323.207px;" class="animable"></path></g><path d="M316.51,204.37a107.82,107.82,0,0,0,.56,14.53c.58,7.07,1.36,14,2.87,25.57L355.57,243c-1.14-10-.46-21.49,5-44.35a8.32,8.32,0,0,0-7.56-10.5c-1.42-.08-2.92-.14-4.46-.15a115.19,115.19,0,0,0-16.18.69c-1.75.24-3.57.54-5.3.85C320.8,190.64,316.44,198.08,316.51,204.37Z" style="fill: rgb(64, 123, 255); transform-origin: 338.665px 216.213px;" id="elnlhqbnfolsg" class="animable"></path><path d="M346.62,169.79c-1.19,5.27-2.51,14.88,1,18.21,0,0-5-.53-15.16,6.39-3.21-4.22-1-5.7-1-5.7,5.85-1.64,5.84-5.95,5-10Z" style="fill: rgb(206, 122, 99); transform-origin: 339.169px 182.09px;" id="elczgoqb5mps" class="animable"></path><g id="el3znbyeg7n7j"><path d="M342.46,173.44l-6,5.28a16.71,16.71,0,0,1,.41,2.86c2.22-.42,5.35-3,5.66-5.33A7.9,7.9,0,0,0,342.46,173.44Z" style="opacity: 0.2; transform-origin: 339.542px 177.51px;" class="animable"></path></g><path d="M327.42,188s-12,23.37-9,70.68c0,0-7.58-42.81-1.93-66.79Z" style="fill: rgb(64, 123, 255); transform-origin: 320.909px 223.34px;" id="elj7ok0ajtfzs" class="animable"></path><g id="elpyfcpnamhcc"><path d="M327.42,188s-12,23.37-9,70.68c0,0-7.58-42.81-1.93-66.79Z" style="fill: rgb(255, 255, 255); opacity: 0.6; transform-origin: 320.909px 223.34px;" class="animable"></path></g><path d="M334.18,185.5l-13.27,3.72,3.15,2.18-4.74,3-.2,27.58S324.19,192.68,334.18,185.5Z" style="fill: rgb(64, 123, 255); transform-origin: 326.65px 203.74px;" id="elxfcbj675ctm" class="animable"></path><g id="el5utmv353vw"><path d="M334.18,185.5l-13.27,3.72,3.15,2.18-4.74,3-.2,27.58S324.19,192.68,334.18,185.5Z" style="fill: rgb(255, 255, 255); opacity: 0.7; transform-origin: 326.65px 203.74px;" class="animable"></path></g><path d="M349.87,185.5s-9.72,31.43.88,62.26,22.12,92.33,22.12,92.33l8.2-3.2s-8.93-69.6-22-97.83c0,0,5.72-47.5,4.4-48.22S349.87,185.5,349.87,185.5Z" style="fill: rgb(64, 123, 255); transform-origin: 363.435px 262.795px;" id="eltserl9wh7w" class="animable"></path><g id="eln90rz0fjs98"><path d="M381.07,336.89l-8.2,3.2s-11.52-61.51-22.12-92.33-.88-62.26-.88-62.26,12.24,4.62,13.57,5.34c.5.28,0,7.37-.87,16-.29,3-.62,6.27-1,9.47-1.23,11.57-2.58,22.71-2.58,22.71C372.14,267.29,381.07,336.89,381.07,336.89Z" style="fill: rgb(255, 255, 255); opacity: 0.6; transform-origin: 363.435px 262.795px;" class="animable"></path></g><path d="M349.87,185.5l8.53,7-7.65,3.62,2.75,5.12-7.13,26.25S340.7,199.73,349.87,185.5Z" style="fill: rgb(64, 123, 255); transform-origin: 351.518px 206.495px;" id="elf4an1998e08" class="animable"></path><g id="elt8nhoy7z3k9"><path d="M349.87,185.5l8.53,7-7.65,3.62,2.75,5.12-7.13,26.25S340.7,199.73,349.87,185.5Z" style="fill: rgb(255, 255, 255); opacity: 0.7; transform-origin: 351.518px 206.495px;" class="animable"></path></g><g id="elx7ld37s5zlo"><path d="M357.07,247s-.49,6.95,7.21,10.15C364.28,257.12,361.77,248,357.07,247Z" style="opacity: 0.2; transform-origin: 360.672px 252.075px;" class="animable"></path></g><path d="M366.34,237.49,360,248.92l-2,2.31a11.19,11.19,0,0,0,5.25,5.22v-5.22l7.34-9.09Z" style="fill: rgb(206, 122, 99); transform-origin: 364.295px 246.97px;" id="el6wniof3iugs" class="animable"></path><g id="elg19dxo5kip"><path d="M362.57,206.89c-.29,3-.62,6.27-1,9.47-3.9-3.62-1.57-10.54-1.57-10.54A9,9,0,0,1,362.57,206.89Z" style="opacity: 0.2; transform-origin: 360.94px 211.09px;" class="animable"></path></g><path d="M363.44,190.84c6.36,4.14,19,22.77,19.53,32.78S368.62,247,368.62,247l-5.39-4.87s6.42-14.95,6.42-18.52-8.84-12-8.84-12-1.56-7.36-.26-13A36.91,36.91,0,0,1,363.44,190.84Z" style="fill: rgb(64, 123, 255); transform-origin: 371.508px 218.92px;" id="elow95gwakhl" class="animable"></path><g id="eld2reg72g928"><path d="M363.44,190.84c6.36,4.14,19,22.77,19.53,32.78S368.62,247,368.62,247l-5.39-4.87s6.42-14.95,6.42-18.52-8.84-12-8.84-12-1.56-7.36-.26-13A36.91,36.91,0,0,1,363.44,190.84Z" style="fill: rgb(255, 255, 255); opacity: 0.6; transform-origin: 371.508px 218.92px;" class="animable"></path></g><path d="M348.27,151.66s2.32-9.06,12.79-8.71,10.93,10.54,7.38,21,2,15.53,2,15.53a8.49,8.49,0,0,1-8.61-3.55c-3.36-4.81.77-17.77-2.21-21.43-3.64-4.48-7.91.23-7.91.23Z" style="fill: rgb(38, 50, 56); transform-origin: 359.355px 161.286px;" id="elr40cwa9e5pk" class="animable"></path><path d="M350.62,159.16c-1.22,8.47-1.56,12.07-6.19,16.31-6.95,6.37-17,3.58-18.31-4.95-1.18-7.67,1-20.24,9.56-23.38A11,11,0,0,1,350.62,159.16Z" style="fill: rgb(206, 122, 99); transform-origin: 338.297px 162.652px;" id="elpcm8fi5zev" class="animable"></path><path d="M339.94,161c-.07.72-.5,1.29-.95,1.27s-.77-.6-.7-1.32.5-1.28,1-1.27S340,160.3,339.94,161Z" style="fill: rgb(38, 50, 56); transform-origin: 339.115px 160.975px;" id="elgf3o13p4hb6" class="animable"></path><path d="M331.06,160.46c-.07.72-.5,1.29-1,1.27s-.77-.6-.7-1.32.5-1.28,1-1.27S331.13,159.75,331.06,160.46Z" style="fill: rgb(38, 50, 56); transform-origin: 330.21px 160.435px;" id="el5rr0nnu21rp" class="animable"></path><path d="M330.56,159.19l-1.63-.55S329.66,160,330.56,159.19Z" style="fill: rgb(38, 50, 56); transform-origin: 329.745px 159.044px;" id="elk1nd0pnt4sk" class="animable"></path><path d="M333.62,162.12a21.42,21.42,0,0,1-2.95,4.49,2.86,2.86,0,0,0,2.44.56Z" style="fill: rgb(186, 77, 60); transform-origin: 332.145px 164.682px;" id="el1m1cyxw6n3l" class="animable"></path><path d="M336.86,169.94a6.43,6.43,0,0,1-1.18.06.18.18,0,0,1-.18-.21.23.23,0,0,1,.22-.21,6,6,0,0,0,4.74-2.07.21.21,0,0,1,.29-.06.22.22,0,0,1,0,.3A6.35,6.35,0,0,1,336.86,169.94Z" style="fill: rgb(38, 50, 56); transform-origin: 338.153px 168.711px;" id="el4lm1eqbaisu" class="animable"></path><path d="M341.71,156.57a.38.38,0,0,1-.3-.11,3.06,3.06,0,0,0-2.76-.93.39.39,0,0,1-.48-.31.45.45,0,0,1,.34-.51,3.84,3.84,0,0,1,3.51,1.13.44.44,0,0,1,0,.6A.45.45,0,0,1,341.71,156.57Z" style="fill: rgb(38, 50, 56); transform-origin: 340.151px 155.606px;" id="elxdg4y28olxo" class="animable"></path><path d="M327.88,155.64a.38.38,0,0,1-.29-.06.41.41,0,0,1-.08-.58,4.39,4.39,0,0,1,3.36-2,.37.37,0,0,1,.38.42.45.45,0,0,1-.44.42,3.5,3.5,0,0,0-2.64,1.59A.48.48,0,0,1,327.88,155.64Z" style="fill: rgb(38, 50, 56); transform-origin: 329.339px 154.324px;" id="elypvntwaggi" class="animable"></path><path d="M339.45,159.74l-1.63-.55S338.54,160.56,339.45,159.74Z" style="fill: rgb(38, 50, 56); transform-origin: 338.635px 159.596px;" id="elbiqe32gl7pd" class="animable"></path><path d="M343.53,150.66s-10.25,5.76-15.37,2.37c0,0-.55-8.91,12.67-8.52s24.56,19.49,5.95,28.39l.86-10S343.28,157.32,343.53,150.66Z" style="fill: rgb(38, 50, 56); transform-origin: 342.359px 158.699px;" id="eloduedm84qfm" class="animable"></path><path d="M352.84,166.23a6.85,6.85,0,0,1-4.31,3c-2.28.45-3.12-1.82-2.24-4,.8-2,2.95-4.64,5.12-4.08S354.09,164.29,352.84,166.23Z" style="fill: rgb(206, 122, 99); transform-origin: 349.729px 165.181px;" id="elp32ipda4lqr" class="animable"></path><path d="M336.42,167a2.76,2.76,0,1,1,2.76-2.76A2.77,2.77,0,0,1,336.42,167Zm0-5a2.27,2.27,0,1,0,2.27,2.27A2.27,2.27,0,0,0,336.42,161.92Z" style="fill: rgb(38, 50, 56); transform-origin: 336.42px 164.24px;" id="elbu2aujmc05v" class="animable"></path><path d="M328.58,166.31a2.76,2.76,0,1,1,2.76-2.76A2.76,2.76,0,0,1,328.58,166.31Zm0-5a2.27,2.27,0,1,0,2.28,2.27A2.27,2.27,0,0,0,328.58,161.28Z" style="fill: rgb(38, 50, 56); transform-origin: 328.58px 163.55px;" id="elg9u6gbxca" class="animable"></path><path d="M333.9,164.16a.25.25,0,0,1-.19-.09,1.72,1.72,0,0,0-2.46-.32.25.25,0,0,1-.34-.05.24.24,0,0,1,0-.34,2.19,2.19,0,0,1,3.13.4.24.24,0,0,1,0,.34A.25.25,0,0,1,333.9,164.16Z" style="fill: rgb(38, 50, 56); transform-origin: 332.475px 163.518px;" id="el4pcoyawt7z4" class="animable"></path><path d="M338.94,164.43a.25.25,0,0,1-.24-.18.26.26,0,0,1,.18-.3l8.7-2.07a.25.25,0,0,1,.11.48l-8.7,2.07Z" style="fill: rgb(38, 50, 56); transform-origin: 343.269px 163.155px;" id="elu2r6edexsr8" class="animable"></path><path d="M342,187.4c6.51-7,7.9-21.43,8-22.22a.23.23,0,0,0-.22-.26.24.24,0,0,0-.26.22c0,.19-1.38,14.33-7.49,21.46Z" style="fill: rgb(38, 50, 56); transform-origin: 346.001px 176.16px;" id="elej16nb5fb4e" class="animable"></path><g id="eldhn022q99r"><path d="M342,187.4c6.51-7,7.9-21.43,8-22.22a.23.23,0,0,0-.22-.26.24.24,0,0,0-.26.22c0,.19-1.38,14.33-7.49,21.46Z" style="fill: rgb(255, 255, 255); opacity: 0.6; transform-origin: 346.001px 176.16px;" class="animable"></path></g><path d="M349.37,165.9c-.23-.29-.61-.2-.49-1s1.52-.83,1,1.15Z" style="fill: rgb(38, 50, 56); transform-origin: 349.426px 165.219px;" id="el9bc4gt889le" class="animable"></path><g id="el19x3qkm9rh7"><path d="M349.37,165.9c-.23-.29-.61-.2-.49-1s1.52-.83,1,1.15Z" style="fill: rgb(255, 255, 255); opacity: 0.6; transform-origin: 349.426px 165.219px;" class="animable"></path></g><path d="M334.07,191.36a6.5,6.5,0,0,1-4.48-1.58c-1.9-1.69-2.95-4.72-3.1-9a.48.48,0,0,1,.47-.5.49.49,0,0,1,.5.47c.14,4,1.08,6.79,2.77,8.3a5.92,5.92,0,0,0,4.55,1.31c4.33-.35,7.89-3.65,10.57-9.8a.49.49,0,0,1,.9.39c-2.85,6.5-6.68,10-11.39,10.38Z" style="fill: rgb(38, 50, 56); transform-origin: 336.39px 185.814px;" id="elzgejar2c3xg" class="animable"></path><path d="M300.77,228.62a39.69,39.69,0,0,1-8.46-.94c-22-4.75-27.85-17.09-30.47-27.32a.48.48,0,0,1,.35-.59.49.49,0,0,1,.59.35c2.56,9.95,8.25,22,29.74,26.61,19.85,4.28,32.22-7.27,36.77-18.48a51.9,51.9,0,0,0,3.62-17.41.49.49,0,0,1,.49-.49h0a.49.49,0,0,1,.48.49,53.09,53.09,0,0,1-3.69,17.78C326.18,218.48,316.3,228.62,300.77,228.62Z" style="fill: rgb(38, 50, 56); transform-origin: 297.852px 209.485px;" id="el85pvar43fdb" class="animable"></path><path d="M262.31,199.93c0,2.11-.94,3.83-2.09,3.83s-2.08-1.72-2.08-3.83.93-3.82,2.08-3.82S262.31,197.82,262.31,199.93Z" style="fill: rgb(38, 50, 56); transform-origin: 260.225px 199.935px;" id="el5gyqhga6w49" class="animable"></path><g id="elq8ncy7dipt"><path d="M262.31,199.93c0,2.11-.94,3.83-2.09,3.83s-2.08-1.72-2.08-3.83.93-3.82,2.08-3.82S262.31,197.82,262.31,199.93Z" style="fill: rgb(255, 255, 255); opacity: 0.5; transform-origin: 260.225px 199.935px;" class="animable"></path></g><g id="elkw2b4c7hhxf"><path d="M263.07,199.93c0,.9-.47,1.63-1.05,1.63s-1.06-.73-1.06-1.63.47-1.63,1.06-1.63S263.07,199,263.07,199.93Z" style="opacity: 0.2; transform-origin: 262.015px 199.93px;" class="animable"></path></g><path d="M263.68,199.93c0,1.06-.46,1.91-1,1.91s-1-.85-1-1.91.47-1.91,1-1.91S263.68,198.88,263.68,199.93Z" style="fill: rgb(38, 50, 56); transform-origin: 262.68px 199.93px;" id="elen8qqnxxnf" class="animable"></path><g id="elxp8fmtipbzl"><path d="M263.68,199.93c0,1.06-.46,1.91-1,1.91s-1-.85-1-1.91.47-1.91,1-1.91S263.68,198.88,263.68,199.93Z" style="fill: rgb(255, 255, 255); opacity: 0.6; transform-origin: 262.68px 199.93px;" class="animable"></path></g></g><defs>     <filter id="active" height="200%">         <feMorphology in="SourceAlpha" result="DILATED" operator="dilate" radius="2"></feMorphology>                <feFlood flood-color="#32DFEC" flood-opacity="1" result="PINK"></feFlood>        <feComposite in="PINK" in2="DILATED" operator="in" result="OUTLINE"></feComposite>        <feMerge>            <feMergeNode in="OUTLINE"></feMergeNode>            <feMergeNode in="SourceGraphic"></feMergeNode>        </feMerge>    </filter>    <filter id="hover" height="200%">        <feMorphology in="SourceAlpha" result="DILATED" operator="dilate" radius="2"></feMorphology>                <feFlood flood-color="#ff0000" flood-opacity="0.5" result="PINK"></feFlood>        <feComposite in="PINK" in2="DILATED" operator="in" result="OUTLINE"></feComposite>        <feMerge>            <feMergeNode in="OUTLINE"></feMergeNode>            <feMergeNode in="SourceGraphic"></feMergeNode>        </feMerge>            <feColorMatrix type="matrix" values="0   0   0   0   0                0   1   0   0   0                0   0   0   0   0                0   0   0   1   0 "></feColorMatrix>    </filter></defs></svg>